<svg xmlns="http://www.w3.org/2000/svg" xmlns:xlink="http://www.w3.org/1999/xlink" width="140" height="124" viewBox="0 0 140 124">
    <defs>
        <path id="a" d="M0 0h140v124H0z"/>
        <path id="c" d="M0 172h105V0H0z"/>
    </defs>
    <g fill="none" fill-rule="evenodd">
        <mask id="b" fill="#fff">
            <use xlink:href="#a"/>
        </mask>
        <g mask="url(#b)">
            <g transform="translate(17 2)">
                <path fill="#6C382D" d="M49 101.76c0 2.34 2.239 4.24 5 4.24 2.76 0 5-1.9 5-4.24V66.24C59 63.9 56.76 62 54 62c-2.761 0-5 1.9-5 4.24v35.52z"/>
                <path fill="#62342D" d="M89 52c0 4.97-3.134 9-7 9s-7-4.03-7-9 3.134-9 7-9 7 4.03 7 9"/>
                <path fill="#7C5346" d="M83 46.5C83 65.554 69.792 81 53.5 81S24 65.554 24 46.5C24 27.446 37.208 12 53.5 12S83 27.446 83 46.5"/>
                <path fill="#6C382D" d="M30 52c0 4.97-3.135 9-7 9-3.866 0-7-4.03-7-9s3.134-9 7-9c3.865 0 7 4.03 7 9"/>
                <path fill="#000" d="M55.74 17.535C46.853 23.075 26.997 36.46 22.129 42c0 0-10.078-37 29.99-37 0 0 34.699 0 28.03 37 0 0-3.785-15.12-17.434-28.396l-6.975 3.93zM53.675 137.333L49.18 90.17 39.078 89 26 94.38V171h56V94.38L68.922 89l-10.755.403z"/>
                <path fill="#000" d="M86.995 172c-2.733-10.394-6.924-21.635-9.855-31.993-1.985-7.017-3.205-14.23-4.86-21.329-.8-3.433-1.706-6.841-2.747-10.208-1.116-3.603-1.802-5.462-3.496-8.584-4.844-8.935 8.584-16.91 13.426-7.98 7.031 12.962 9.722 28 13.378 42.098 1.47 5.667 2.305 11.123 4.352 16.591 2.437 6.51 4.335 14.603 5.807 21.405H86.995zM16.005 172c2.732-10.394 6.924-21.635 9.855-31.993 1.985-7.017 3.205-14.23 4.86-21.329.8-3.433 1.706-6.841 2.747-10.208 1.116-3.603 1.802-5.462 3.495-8.584 4.846-8.935-8.582-16.91-13.425-7.98-7.031 12.962-9.722 28-13.378 42.098-1.47 5.667-2.306 11.123-4.353 16.591C3.37 157.105 1.472 165.198 0 172h16.005z"/>
                <path fill="#000" d="M55.467 84.174l-4.689 18.838L46.976 84 34 89.573l16.589 59.66.218.767.223-.789L68 89.771z"/>
                <path fill="#A5A5A5" d="M51.309 118.31c-.309 0-.309 0-.309-.31"/>
                <path fill="#000" d="M65.12 12.121c-2.02 1.604-4.023 3.088-5.958 4.821-2.043 1.83-4.03 3.726-6.091 5.534a139.555 139.555 0 0 1-6.331 5.203c-2.155 1.678-4.52 3.084-6.511 4.974-.575.547.033 1.513.734 1.322 4.987-1.356 9.559-5.37 13.416-8.809 1.963-1.75 3.905-3.545 5.734-5.45 2.04-2.123 3.825-4.37 5.739-6.6.43-.502-.156-1.452-.732-.995M38 50c0 2.761-1.12 5-2.5 5S33 52.761 33 50s1.12-5 2.5-5 2.5 2.239 2.5 5M32.995 38.852c.867-.881 2.4-1.463 4.017-1.667 1.7-.215 3.101.205 4.484.764.249.1.57-.066.492-.236-.62-1.382-2.934-1.893-5.053-1.658-2.279.253-4.033 1.22-4.897 2.545-.23.352.657.556.957.252"/>
                <path fill="#000" d="M33.028 45.22c.636.761 1.517 1.658 2.738 1.779.194.019.319-.22.165-.315-.449-.278-.975-.447-1.427-.726a8.013 8.013 0 0 1-1.188-.914c-.136-.124-.403.038-.288.176M61 50c0 2.761 1.119 5 2.5 5 1.38 0 2.5-2.239 2.5-5s-1.12-5-2.5-5c-1.381 0-2.5 2.239-2.5 5M69.962 38.6c-.864-1.325-2.62-2.292-4.898-2.545-2.117-.235-4.432.276-5.052 1.658-.077.17.242.337.492.236 1.39-.562 2.774-.975 4.484-.764 1.615.2 3.152.789 4.017 1.667.296.301 1.19.105.957-.252"/>
                <path fill="#000" d="M67.684 45.044c-.364.332-.75.643-1.188.914-.452.28-.978.448-1.427.726-.153.094-.03.334.165.315 1.22-.12 2.102-1.018 2.738-1.779.114-.136-.15-.3-.288-.176"/>
                <path fill="#6C382D" d="M50.839 48.207c.228 3-.395 6.644-2.98 7.829-1.703.78-.606 3.805.965 2.739 1.54-1.046 2.74-2.595 3.071-4.729.337-2.17-.204-3.87-.705-5.896-.055-.222-.37-.193-.351.057M81.632 45.005c-1.651.312-2.348 2.64-2.567 4.768-.15 1.45-.166 5.18 1.379 5.227.113.003.246-.155.23-.33-.123-1.42-.624-2.596-.583-4.109.044-1.577.44-3.94 1.643-4.476.391-.174.346-1.165-.102-1.08"/>
                <path fill="#F6A152" d="M19.266 46.085c1.204.537 1.6 2.898 1.643 4.476.042 1.52-.46 2.686-.583 4.109-.015.175.118.334.23.33 1.545-.047 1.528-3.778 1.38-5.227-.22-2.129-.917-4.456-2.567-4.768-.444-.084-.498.904-.103 1.08"/>
                <path fill="#000" d="M24 61.454C24 63.964 22.047 66 19.637 66h-3.273C13.954 66 12 63.965 12 61.454V45.546C12 43.036 13.954 41 16.364 41h3.273C22.047 41 24 43.035 24 45.546v15.908zM80 61.454C80 63.964 81.953 66 84.364 66h3.272C90.046 66 92 63.965 92 61.454V45.546C92 43.036 90.046 41 87.636 41h-3.272C81.954 41 80 43.035 80 45.546v15.908z"/>
                <path stroke="#000" stroke-width="4.75" d="M16 46C16 21.147 31.894 1 51.5 1S87 21.147 87 46"/>
                <path stroke="#000" stroke-width="3.712" d="M84 48c0 12.15-9.402 22-21 22"/>
                <path fill="#000" d="M68 69.5c0 1.38-2.014 2.5-4.5 2.5S59 70.88 59 69.5c0-1.381 2.014-2.5 4.5-2.5s4.5 1.119 4.5 2.5"/>
                <path fill="#6C382D" d="M45.107 69.012c2.434 4.543 10.127 3.65 11.837-.956.393-1.056-1.408-1.51-1.798-.46-1.223 3.295-6.763 3.65-8.429.541-.535-.998-2.144-.121-1.61.875"/>
                <mask id="d" fill="#fff">
                    <use xlink:href="#c"/>
                </mask>
                <path fill="#FF7900" d="M35 115h5v-5h-5z" mask="url(#d)"/>
            </g>
        </g>
    </g>
</svg>
